<?xml version="1.0" encoding="utf-8"?>
<!-- Generator: Adobe Illustrator 24.0.1, SVG Export Plug-In . SVG Version: 6.00 Build 0)  -->
<svg version="1.1" id="Layer_1" xmlns="http://www.w3.org/2000/svg" xmlns:xlink="http://www.w3.org/1999/xlink" x="0px" y="0px"
	 viewBox="0 0 391 391" style="enable-background:new 0 0 391 391;" xml:space="preserve">
<style type="text/css">
	.st0{fill:#09A9CE;}
	.st1{fill:#0694BA;}
</style>
<path class="st0" d="M380.8,23.5c13.6,13.6,13.6,35.8,0,49.4l-17.7,17.7L302,29.4l17.7-17.7c13.6-13.6,35.8-13.6,49.4,0L380.8,23.5z
	"/>
<path class="st1" d="M363.1,90.6L203.2,250.5h0L142,189.4L302,29.4L363.1,90.6z"/>
<path class="st0" d="M142,189.4l61.1,61.1l-0.6,0.6L118,274.5l23.4-84.6L142,189.4z"/>
<path class="st1" d="M330.1,390.5H49.9C22.4,390.5,0,368.1,0,340.6V80.3c0-27.6,22.4-49.9,49.9-49.9h88.7c5.5,0,10,4.5,10,10
	s-4.5,10-10,10H49.9c-16.5,0-29.9,13.4-30,30v260.2c0,16.5,13.4,29.9,30,30h280.2c16.5,0,29.9-13.4,30-30v-88.7c0-5.5,4.5-10,10-10
	s10,4.5,10,10v88.7C380,368.1,357.7,390.5,330.1,390.5z"/>
</svg>
