<?xml version="1.0" encoding="utf-8"?>
<!-- Generator: Adobe Illustrator 24.0.1, SVG Export Plug-In . SVG Version: 6.00 Build 0)  -->
<svg version="1.1" id="Capa_1" xmlns="http://www.w3.org/2000/svg" xmlns:xlink="http://www.w3.org/1999/xlink" x="0px" y="0px"
	 viewBox="0 0 512 512" style="enable-background:new 0 0 512 512;" xml:space="preserve">
<style type="text/css">
	.st0{fill:#2C3E50;}
	.st1{fill:#1E2D3A;}
	.st2{fill:#BF8C5E;}
	.st3{fill:#C99765;}
	.st4{fill:#6E4848;}
</style>
<g>
	<g>
		<path class="st0" d="M351.8,340.9c0,0-0.1-0.1-0.1-0.1c73.8-79.6,72-203.9-5.4-281.3c-79.2-79.2-207.7-79.2-286.9,0
			s-79.2,207.7,0,287c77.4,77.4,201.8,79.2,281.4,5.3c0,0,0.1,0.1,0.1,0.1l41.9,41.9c1.5,1.5,3.5,2.3,5.5,2.3c2,0,4-0.8,5.5-2.3
			c3-3,3-7.9,0-10.9L351.8,340.9z M202.9,372c-93.3,0-169-75.7-169-169s75.7-169,169-169s169,75.7,169,169S296.2,372,202.9,372z"/>
		<path class="st0" d="M502.9,458.5l-88.1-88.1c-2.4-2.4-6.2-2.4-8.6,0l-35.8,35.8c-2.4,2.4-2.4,6.2,0,8.6l88.1,88.1
			c12.2,12.2,31.9,12.2,44.1,0l0.4-0.4C515,490.4,515,470.6,502.9,458.5z"/>
		<path class="st1" d="M502.9,458.5l-88.1-88.1c-2.4-2.4-6.2-2.4-8.6,0l-35.8,35.8c-2.4,2.4-2.4,6.2,0,8.6l10.8,10.8
			c16.9-16.9,44.4-16.9,61.3,0l61.7,61.8c1.9,1.9,3.6,4.1,4.9,6.3C514.5,482.1,512.4,468,502.9,458.5z"/>
	</g>
	<g>
		<g>
			<path class="st0" d="M278.5,258.1c-1.2-6.5-3.6-12.5-7.1-17.8v0c-5.5-8.3-13.6-14.8-23.3-18.3l-45-16.3l-45.3,16.4
				c-9.6,3.5-17.7,9.9-23.2,18.2c-3.5,5.2-5.9,11.1-7.1,17.4l-4.2,22c-3.1,16.3,9.4,31.3,25.9,31.3h107.2c16.4,0,28.9-14.9,26-31
				L278.5,258.1z"/>
			<path class="st2" d="M177.3,214.7c14.5,12.7,36.2,12.7,50.7,0l0,0l0-34h-50.7V214.7z"/>
			<path class="st3" d="M202.6,87c-22.2,0-40.3,11.6-40.3,33.8v29.7c0,22,17.6,39.8,39.5,40.3c22.6,0.4,41.1-18.6,41.1-41.2v-28.8
				C242.9,98.6,224.8,87,202.6,87z"/>
			<g>
				<path class="st1" d="M134.7,240.2c-3.5,5.2-5.9,11.1-7.1,17.4l-4.2,22c-3.1,16.3,9.4,31.3,25.9,31.3h11.5v-38.9
					C160.8,256.3,149.6,243.2,134.7,240.2z"/>
				<path class="st1" d="M278.5,258.1c-1.2-6.5-3.6-12.5-7.1-17.8c-14.8,3-26,16.1-26,31.8V311h11.1v0c16.4,0,28.9-14.9,26-31
					L278.5,258.1z"/>
			</g>
		</g>
		<path class="st4" d="M202.6,80.5c-22.3,0-40.3,18-40.3,40.3v1.7c0.8-0.3,1.6-0.9,2.3-1.7c7.4-7.8,16.2-6.9,19-3.4
			c2.8,3.6,10.2,9.1,10.2,9.1c7.1,5,21.9,4.8,37-1.3c3.3-1.3,6.4-2.8,9.3-4.5c0,0,1.1-0.8,2.6-2c-0.5-10.3-4.9-19.6-11.8-26.5
			C223.8,85,213.8,80.5,202.6,80.5z"/>
	</g>
</g>
</svg>
